<mxfile host="65bd71144e">
    <diagram id="NEm1ySskwOPiRhlZ9esV" name="Page-1">
        <mxGraphModel dx="1975" dy="1416" grid="1" gridSize="10" guides="1" tooltips="1" connect="1" arrows="1" fold="1" page="1" pageScale="1" pageWidth="1169" pageHeight="827" math="0" shadow="0">
            <root>
                <mxCell id="0"/>
                <mxCell id="1" parent="0"/>
                <mxCell id="51" style="edgeStyle=none;html=1;exitX=0;exitY=0;exitDx=109.99999999999999;exitDy=10;exitPerimeter=0;entryX=0;entryY=0;entryDx=0;entryDy=30;entryPerimeter=0;rounded=0;" edge="1" parent="1" source="43" target="47">
                    <mxGeometry relative="1" as="geometry">
                        <Array as="points">
                            <mxPoint x="614" y="319"/>
                            <mxPoint x="614" y="339"/>
                        </Array>
                    </mxGeometry>
                </mxCell>
                <mxCell id="43" value="gamePlayMode" style="externalPins=0;recursiveResize=0;shadow=0;dashed=0;align=center;html=1;strokeWidth=1;shape=mxgraph.rtl.abstract.entity;container=1;collapsible=0;kind=input;drawPins=0;left=0;right=1;bottom=0;top=0;" vertex="1" parent="1">
                    <mxGeometry x="234" y="309" width="110" height="20" as="geometry"/>
                </mxCell>
                <mxCell id="49" style="edgeStyle=none;html=1;exitX=0;exitY=0;exitDx=109.99999999999999;exitDy=10;exitPerimeter=0;entryX=0;entryY=0;entryDx=0;entryDy=20;entryPerimeter=0;" edge="1" parent="1" source="44" target="48">
                    <mxGeometry relative="1" as="geometry"/>
                </mxCell>
                <mxCell id="44" value="firstMoveDet" style="externalPins=0;recursiveResize=0;shadow=0;dashed=0;align=center;html=1;strokeWidth=1;shape=mxgraph.rtl.abstract.entity;container=1;collapsible=0;kind=input;drawPins=0;left=0;right=1;bottom=0;top=0;" vertex="1" parent="1">
                    <mxGeometry x="234" y="359" width="110" height="20" as="geometry"/>
                </mxCell>
                <mxCell id="56" style="edgeStyle=none;rounded=0;html=1;exitX=0;exitY=0;exitDx=59.99999999999999;exitDy=10;exitPerimeter=0;entryX=0;entryY=0;entryDx=0;entryDy=40;entryPerimeter=0;" edge="1" parent="1" source="45" target="48">
                    <mxGeometry relative="1" as="geometry">
                        <Array as="points">
                            <mxPoint x="374" y="499"/>
                            <mxPoint x="374" y="389"/>
                        </Array>
                    </mxGeometry>
                </mxCell>
                <mxCell id="58" style="edgeStyle=none;rounded=0;html=1;exitX=0;exitY=0;exitDx=59.99999999999999;exitDy=10;exitPerimeter=0;entryX=0;entryY=0;entryDx=0;entryDy=90;entryPerimeter=0;" edge="1" parent="1" source="45" target="47">
                    <mxGeometry relative="1" as="geometry">
                        <Array as="points">
                            <mxPoint x="554" y="499"/>
                            <mxPoint x="554" y="399"/>
                        </Array>
                    </mxGeometry>
                </mxCell>
                <mxCell id="45" value="reset" style="externalPins=0;recursiveResize=0;shadow=0;dashed=0;align=center;html=1;strokeWidth=1;shape=mxgraph.rtl.abstract.entity;container=1;collapsible=0;kind=input;drawPins=0;left=0;right=1;bottom=0;top=0;" vertex="1" parent="1">
                    <mxGeometry x="234" y="489" width="60" height="20" as="geometry"/>
                </mxCell>
                <mxCell id="57" style="edgeStyle=none;rounded=0;html=1;exitX=0;exitY=0;exitDx=59.99999999999999;exitDy=10;exitPerimeter=0;entryX=0;entryY=0.5;entryDx=0;entryDy=0;" edge="1" parent="1" source="46" target="52">
                    <mxGeometry relative="1" as="geometry">
                        <Array as="points">
                            <mxPoint x="394" y="529"/>
                            <mxPoint x="394" y="409"/>
                        </Array>
                    </mxGeometry>
                </mxCell>
                <mxCell id="59" style="edgeStyle=none;rounded=0;html=1;exitX=0;exitY=0;exitDx=59.99999999999999;exitDy=10;exitPerimeter=0;entryX=0;entryY=0.5;entryDx=0;entryDy=0;" edge="1" parent="1" source="46" target="53">
                    <mxGeometry relative="1" as="geometry">
                        <Array as="points">
                            <mxPoint x="574" y="529"/>
                            <mxPoint x="574" y="419"/>
                        </Array>
                    </mxGeometry>
                </mxCell>
                <mxCell id="46" value="clock" style="externalPins=0;recursiveResize=0;shadow=0;dashed=0;align=center;html=1;strokeWidth=1;shape=mxgraph.rtl.abstract.entity;container=1;collapsible=0;kind=input;drawPins=0;left=0;right=1;bottom=0;top=0;" vertex="1" parent="1">
                    <mxGeometry x="234" y="519" width="60" height="20" as="geometry"/>
                </mxCell>
                <mxCell id="68" style="edgeStyle=none;rounded=0;html=1;entryX=0;entryY=0.556;entryDx=0;entryDy=0;entryPerimeter=0;exitX=1.002;exitY=0.745;exitDx=0;exitDy=0;exitPerimeter=0;strokeWidth=2;" edge="1" parent="1" source="47" target="67">
                    <mxGeometry relative="1" as="geometry"/>
                </mxCell>
                <mxCell id="69" style="edgeStyle=none;rounded=0;html=1;entryX=-0.005;entryY=0.502;entryDx=0;entryDy=0;entryPerimeter=0;exitX=0.999;exitY=0.427;exitDx=0;exitDy=0;exitPerimeter=0;strokeWidth=2;" edge="1" parent="1" source="47" target="66">
                    <mxGeometry relative="1" as="geometry"/>
                </mxCell>
                <mxCell id="70" style="edgeStyle=none;rounded=0;html=1;entryX=-0.001;entryY=0.498;entryDx=0;entryDy=0;entryPerimeter=0;exitX=0.996;exitY=0.104;exitDx=0;exitDy=0;exitPerimeter=0;strokeWidth=2;" edge="1" parent="1" source="47" target="65">
                    <mxGeometry relative="1" as="geometry"/>
                </mxCell>
                <mxCell id="47" value="" style="externalPins=0;recursiveResize=0;shadow=0;dashed=0;align=center;html=1;strokeWidth=1;shape=mxgraph.rtl.abstract.entity;container=1;collapsible=0;kind=sequential;drawPins=0;left=3;right=2;bottom=0;top=0;" vertex="1" parent="1">
                    <mxGeometry x="654" y="309" width="80" height="120" as="geometry"/>
                </mxCell>
                <mxCell id="53" value="" style="triangle;whiteSpace=wrap;html=1;" vertex="1" parent="47">
                    <mxGeometry y="100" width="10" height="20" as="geometry"/>
                </mxCell>
                <mxCell id="50" style="edgeStyle=none;html=1;exitX=0;exitY=0;exitDx=40;exitDy=20;exitPerimeter=0;entryX=0;entryY=0;entryDx=0;entryDy=60;entryPerimeter=0;" edge="1" parent="1" source="48" target="47">
                    <mxGeometry relative="1" as="geometry"/>
                </mxCell>
                <mxCell id="55" value="firstMove" style="edgeLabel;html=1;align=center;verticalAlign=middle;resizable=0;points=[];" vertex="1" connectable="0" parent="50">
                    <mxGeometry x="-0.1556" relative="1" as="geometry">
                        <mxPoint as="offset"/>
                    </mxGeometry>
                </mxCell>
                <mxCell id="48" value="" style="externalPins=0;recursiveResize=0;shadow=0;dashed=0;align=center;html=1;strokeWidth=1;shape=mxgraph.rtl.abstract.entity;container=1;collapsible=0;kind=sequential;drawPins=0;left=3;right=2;bottom=0;top=0;" vertex="1" parent="1">
                    <mxGeometry x="484" y="349" width="40" height="70" as="geometry"/>
                </mxCell>
                <mxCell id="52" value="" style="triangle;whiteSpace=wrap;html=1;" vertex="1" parent="48">
                    <mxGeometry y="50" width="10" height="20" as="geometry"/>
                </mxCell>
                <mxCell id="54" value="FIRST_MOVE" style="text;html=1;strokeColor=none;fillColor=none;align=center;verticalAlign=middle;whiteSpace=wrap;rounded=0;" vertex="1" parent="1">
                    <mxGeometry x="484" y="331" width="80" height="20" as="geometry"/>
                </mxCell>
                <mxCell id="61" value="" style="externalPins=0;recursiveResize=0;ellipse;whiteSpace=wrap;html=1;aspect=fixed;fillColor=#000000;strokeColor=none;noLabel=1;snapToPoint=1;perimeter=none;resizable=0;rotatable=0;" vertex="1" parent="1">
                    <mxGeometry x="371" y="496" width="5" height="5" as="geometry"/>
                </mxCell>
                <mxCell id="62" value="" style="externalPins=0;recursiveResize=0;ellipse;whiteSpace=wrap;html=1;aspect=fixed;fillColor=#000000;strokeColor=none;noLabel=1;snapToPoint=1;perimeter=none;resizable=0;rotatable=0;" vertex="1" parent="1">
                    <mxGeometry x="392" y="526" width="5" height="5" as="geometry"/>
                </mxCell>
                <mxCell id="63" value="RANDOMIZER_PROC" style="text;html=1;strokeColor=none;fillColor=none;align=center;verticalAlign=middle;whiteSpace=wrap;rounded=0;" vertex="1" parent="1">
                    <mxGeometry x="654" y="289" width="130" height="20" as="geometry"/>
                </mxCell>
                <mxCell id="65" value="bomb1" style="externalPins=0;recursiveResize=0;shadow=0;dashed=0;align=center;html=1;strokeWidth=1;shape=mxgraph.rtl.abstract.entity;container=1;collapsible=0;kind=input;drawPins=0;left=0;right=1;bottom=0;top=0;" vertex="1" parent="1">
                    <mxGeometry x="874" y="313" width="60" height="18" as="geometry"/>
                </mxCell>
                <mxCell id="66" value="bomb2" style="externalPins=0;recursiveResize=0;shadow=0;dashed=0;align=center;html=1;strokeWidth=1;shape=mxgraph.rtl.abstract.entity;container=1;collapsible=0;kind=input;drawPins=0;left=0;right=1;bottom=0;top=0;" vertex="1" parent="1">
                    <mxGeometry x="874" y="351" width="60" height="18" as="geometry"/>
                </mxCell>
                <mxCell id="67" value="bomb3" style="externalPins=0;recursiveResize=0;shadow=0;dashed=0;align=center;html=1;strokeWidth=1;shape=mxgraph.rtl.abstract.entity;container=1;collapsible=0;kind=input;drawPins=0;left=0;right=1;bottom=0;top=0;" vertex="1" parent="1">
                    <mxGeometry x="874" y="389" width="60" height="18" as="geometry"/>
                </mxCell>
                <mxCell id="71" value="5" style="verticalLabelPosition=top;shadow=0;dashed=0;align=center;html=1;verticalAlign=bottom;shape=mxgraph.electrical.transmission.bus_width;pointerEvents=1;labelPosition=center;" vertex="1" parent="1">
                    <mxGeometry x="794" y="316" width="10" height="10" as="geometry"/>
                </mxCell>
                <mxCell id="72" value="5" style="verticalLabelPosition=top;shadow=0;dashed=0;align=center;html=1;verticalAlign=bottom;shape=mxgraph.electrical.transmission.bus_width;pointerEvents=1;labelPosition=center;" vertex="1" parent="1">
                    <mxGeometry x="794" y="355" width="10" height="10" as="geometry"/>
                </mxCell>
                <mxCell id="73" value="5" style="verticalLabelPosition=top;shadow=0;dashed=0;align=center;html=1;verticalAlign=bottom;shape=mxgraph.electrical.transmission.bus_width;pointerEvents=1;labelPosition=center;" vertex="1" parent="1">
                    <mxGeometry x="794" y="394" width="10" height="10" as="geometry"/>
                </mxCell>
            </root>
        </mxGraphModel>
    </diagram>
</mxfile>